<svg width="30" height="30" viewBox="0 0 30 30" fill="none" xmlns="http://www.w3.org/2000/svg">
<g clip-path="url(#clip0_808_1811)">
<rect y="4" width="30" height="26" rx="3" fill="#B8D0FF"/>
<rect x="6" width="3" height="9" rx="1" fill="#4D80E8"/>
<rect x="21" width="3" height="9" rx="1" fill="#4D80E8"/>
<path d="M14.6179 13.2367C14.7341 12.8609 15.2661 12.8609 15.3823 13.2367L16.3294 16.3017C16.3812 16.4693 16.5361 16.5836 16.7115 16.5836H19.8176C20.2002 16.5836 20.3644 17.0692 20.0604 17.3015L17.5136 19.247C17.3804 19.3488 17.3248 19.5228 17.3743 19.683L18.3388 22.8043C18.4538 23.1764 18.0233 23.4767 17.7138 23.2403L15.2429 21.3527C15.0995 21.2432 14.9006 21.2432 14.7573 21.3527L12.2864 23.2403C11.9769 23.4767 11.5464 23.1764 11.6614 22.8043L12.6259 19.683C12.6754 19.5228 12.6198 19.3488 12.4866 19.247L9.93978 17.3015C9.63574 17.0692 9.79999 16.5836 10.1826 16.5836H13.2886C13.464 16.5836 13.619 16.4693 13.6708 16.3017L14.6179 13.2367Z" fill="white"/>
</g>
<defs>
<clipPath id="clip0_808_1811">
<rect width="30" height="30" fill="white"/>
</clipPath>
</defs>
</svg>
